<?xml version="1.0" encoding="utf-8"?>
<!-- Generator: Adobe Illustrator 21.1.0, SVG Export Plug-In . SVG Version: 6.00 Build 0)  -->
<svg version="1.1" id="Layer_1" xmlns="http://www.w3.org/2000/svg" xmlns:xlink="http://www.w3.org/1999/xlink" x="0px" y="0px"
	 viewBox="0 0 89.8 89.8" style="enable-background:new 0 0 89.8 89.8;" xml:space="preserve">
<style type="text/css">
	.st0{fill:#FFFFFF;}
	.st1{fill:#F26798;}
</style>
<circle class="st0" cx="44.9" cy="44.9" r="44.9"/>
<g>
	<path class="st1" d="M58.3,23.9H31.5c-4.3,0-7.7,3.5-7.7,7.7v26.8c0,4.3,3.5,7.7,7.7,7.7h26.8c4.3,0,7.7-3.5,7.7-7.7V31.6
		C66,27.4,62.5,23.9,58.3,23.9z M44.9,59C37.2,59,31,52.8,31,45s6.2-13.9,13.9-13.9S58.8,37.3,58.8,45C58.8,52.8,52.5,59,44.9,59z
		 M59.2,34c-1.8,0-3.3-1.5-3.3-3.3s1.5-3.3,3.3-3.3s3.3,1.5,3.3,3.3S61,34,59.2,34z"/>
	<path class="st1" d="M44.9,37c-4.4,0-8,3.6-8,8s3.6,8,8,8s8-3.6,8-8S49.3,37,44.9,37z"/>
	<path class="st1" d="M44.9,0C20.1,0,0,20.1,0,45s20.1,44.9,44.9,44.9S89.8,69.8,89.8,45S69.7,0,44.9,0z M71.9,58.5
		c0,7.5-6.1,13.6-13.6,13.6H31.5c-7.5,0-13.6-6.1-13.6-13.6V31.6C17.9,24.1,24,18,31.5,18h26.8c7.5,0,13.6,6.1,13.6,13.6V58.5z"/>
</g>
</svg>
